<svg width="15" height="15" viewBox="0 0 15 15" fill="none" xmlns="http://www.w3.org/2000/svg">
<path d="M14.2281 1.63811C14.2281 1.63811 13.4867 0.627356 12.8181 0.228113C10.1675 -1.3547 7.22811 5.81811 7.22811 5.81811L1.63811 0.228113C1.63811 0.228113 0.627356 0.969523 0.228113 1.63811C-1.3547 4.28876 5.81811 7.22811 5.81811 7.22811L0.228113 12.8181C0.228113 12.8181 0.969523 13.8289 1.63811 14.2281C4.28876 15.8109 7.22811 8.63811 7.22811 8.63811L12.8181 14.2281C12.8181 14.2281 13.8289 13.4867 14.2281 12.8181C15.8109 10.1675 8.63811 7.22811 8.63811 7.22811L14.2281 1.63811Z" fill="#FC5F5F"/>
</svg>
